<?xml version="1.0" encoding="utf-8"?>
<!-- Generator: Adobe Illustrator 27.3.1, SVG Export Plug-In . SVG Version: 6.00 Build 0)  -->
<svg version="1.1" id="Layer_1" xmlns="http://www.w3.org/2000/svg" xmlns:xlink="http://www.w3.org/1999/xlink" x="0px" y="0px"
	 viewBox="0 0 360 360" style="enable-background:new 0 0 360 360;" xml:space="preserve">
<style type="text/css">
	.st0{fill:none;}
	.st1{stroke:#000000;stroke-width:0.48;stroke-miterlimit:10;}
	.st2{stroke:#000000;stroke-width:0.2;stroke-miterlimit:10;}
	.st3{stroke:#000000;stroke-width:0.21;stroke-miterlimit:10;}
	.st4{fill:none;stroke:#000000;stroke-width:2.91;stroke-miterlimit:10;}
	.st5{stroke:#000000;stroke-width:0.45;stroke-miterlimit:10;}
	.st6{stroke:#000000;stroke-width:0.66;stroke-miterlimit:10;}
	.st7{stroke:#000000;stroke-width:3;stroke-miterlimit:10;}
	.st8{stroke:#000000;stroke-width:3.38;stroke-miterlimit:10;}
	.st9{font-family:'TimesNewRomanPS-ItalicMT';}
	.st10{font-size:23.1127px;}
	.st11{fill:none;stroke:#000000;stroke-width:3.38;stroke-miterlimit:10;}
	.st12{fill:none;stroke:#000000;stroke-width:3;stroke-miterlimit:10;}
	.st13{stroke:#000000;stroke-miterlimit:10;}
</style>
<rect class="st0" width="360" height="360"/>
<path d="M247.4,211.6c7.2-0.3,13.1,5.3,13.4,12.4c0,0.3,0,0.6,0,1c0.1,8.2-5.6,14.4-13.3,14.6c-7.9,0-14.4-6.5-14.4-14.4
	C233.4,217.4,239.3,211.6,247.4,211.6z"/>
<path class="st1" d="M174.2,32.9v152.3h-3.6c0,0,1.3-16.5-10.7-18.9V32.9c0-1.3,0-3.2-0.3-5.3c0-0.6-0.3-3-0.7-4.9
	c-0.9-3.6-2.6-6.9-5.1-9.7c2.6,0,5.2,0.6,7.7,1.4c3.5,1.3,6.6,3.6,9,6.6C172.9,24.6,174.3,28.7,174.2,32.9z"/>
<path class="st2" d="M173.5,242.7l0.1,22.5H170c0-0.3,0-0.6-0.1-0.9c-0.4-1.7-1.3-3.2-2.6-4.5c-1.9-1.7-4.3-2.9-6.9-3
	c-0.1-6.8-0.1-10.1-0.1-11.8c0-1,0-1.9,0-2.9c0.1-1.6-0.1-3.2-0.6-4.6c-0.3-0.6-0.6-1.2-1-1.7c-0.4-0.6-1.2-1-1.7-1.4
	c1,0,2.5-0.1,4.3-0.1c5.3,0.1,8.2,0.1,10.3,2C171.7,236.8,173.5,238.6,173.5,242.7z"/>
<path class="st3" d="M266.1,256.7l0.1-22.5h-3.8c0,0.1,0,0.4-0.1,0.9c-0.4,1.7-1.3,3.3-2.6,4.5c-1.9,1.7-4.3,2.9-6.9,3.3
	c0,3.9-0.1,7.8-0.1,11.7c0,1.2,0,2.2,0,2.9c0.1,1.6-0.1,3.2-0.6,4.6c-0.3,0.6-0.6,1.2-1.2,1.7c-0.6,0.6-1.2,1.2-1.9,1.4
	c1,0,2.6,0.1,4.3,0.1c5.3-0.1,8.4-0.1,10.4-2C264.5,262.6,266.1,260.7,266.1,256.7z"/>
<path class="st4" d="M96.6,184.6c0,19.6,16.9,35.5,37.8,35.5s37.8-15.9,37.8-35.5"/>
<path class="st5" d="M278.8,282.7c-2.5,4.2-4.2,8.8-5.1,13.6c-0.4,2.5-0.6,4.9-0.7,7.4c0,1.4-0.1,3.8-0.1,7.4c0,1.4,0,1.4,0,1.6
	c0,2.5-0.3,5.1-0.9,7.5c-0.9,2.9-2.3,5.6-4.3,7.8c-6.4,7.2-19.2,7.7-20.8,7.7c2.7-1.3,5.1-3.2,7.1-5.5c1.9-2.5,3.2-5.2,3.8-8.1
	c0.9-3.6,1.3-7.4,1.3-11.1c0.1-1.9,0.1-3,0.3-5.8c0-2,0.3-4,0.6-6.1c0.6-2.7,1.9-5.3,3.5-7.5c1.6-1.9,3.5-3.5,5.6-4.8
	C272,284.7,275.3,283.4,278.8,282.7z"/>
<path class="st5" d="M258.8,283c-2.5,4.2-4.2,8.8-5.1,13.6c-0.4,2.5-0.6,4.9-0.7,7.4c0,1.4-0.1,3.8-0.1,7.4c0,1.6,0,1.4,0,1.6
	c0,2.5-0.3,5.1-0.9,7.5c-0.9,2.9-2.3,5.5-4.3,7.8c-6.4,7.2-19.2,7.7-20.8,7.7c2.7-1.3,5.2-3.2,7.1-5.5c1.9-2.5,3-5.2,3.8-8.1
	c0.9-3.6,1.3-7.4,1.3-11.1c0.1-1.9,0-3,0.3-5.8c0-2,0.3-4,0.6-6.1c0.6-2.7,1.9-5.2,3.5-7.5c1.6-1.9,3.5-3.5,5.6-4.8
	C252,285,255.4,283.7,258.8,283z"/>
<path class="st5" d="M238.3,283.3c-2.5,4.2-4.2,8.8-5.1,13.6c-0.4,2.5-0.6,4.9-0.7,7.4c0,1.4-0.1,3.8-0.1,7.4c0,1.6,0,1.4,0,1.6
	c0,2.5-0.3,5.1-0.9,7.5c-0.9,2.9-2.3,5.5-4.3,7.8c-6.4,7.2-19.2,7.7-20.8,7.7c2.7-1.3,5.2-3.2,7.1-5.5c1.9-2.5,3.2-5.2,3.8-8.1
	c0.9-3.6,1.3-7.4,1.3-11.1c0.1-2,0-3,0.3-5.8c0-2,0.3-4,0.6-6.1c0.7-2.7,1.9-5.2,3.5-7.5c1.6-1.9,3.5-3.5,5.6-4.8
	C231.5,285.3,234.8,284,238.3,283.3z"/>
<path class="st6" d="M187.6,48.2v270h3.8c0-2.2,0.1-5.1,0.6-8.5c0.4-3.8,1-7.5,2-11.1c1.6-5.3,4.5-10.3,8.7-14V48.2
	c0-2.3,0-5.6,0.3-9.5c0-1,0.3-5.5,0.7-8.7c0.9-5.9,2.6-11.7,5.3-17c-2.9,0.1-5.6,1-7.9,2.6c-5.2,3.5-8.2,9.4-9.2,11.8
	C188.8,34.1,187.5,41.2,187.6,48.2z"/>
<path class="st7" d="M189.3,317.8c0,9.1,7.4,16.5,16.5,16.5c4.5,0,8.8-1.9,12-5.2"/>
<path d="M94.4,184.6h4.3c0,0-1.2-12.3,10.8-12.3H94.4V184.6z"/>
<path class="st4" d="M95.4,262.2c0,19.6,16.9,35.5,37.8,35.5s37.8-15.9,37.8-35.5"/>
<path d="M93.3,262.2h4.3c0,0-1.2-12.3,10.8-12.3H93.3V262.2z"/>
<path class="st8" d="M157.3,262.9c-7.4,0-13.3-5.9-13.3-13.1c0-7.4,5.9-13.3,13.1-13.3c7.4,0,13.3,5.9,13.3,13.1c0,2-0.4,4-1.3,5.9"
	/>
<text transform="matrix(1 0 0 1 94.4531 334.2676)" class="st9 st10">sanwal</text>
<path d="M160.2,255.5v31.8c5.9-4.5,9.8-10.8,11.3-18.2l0.3-13.7L160.2,255.5z"/>
<line class="st11" x1="157.3" y1="262.9" x2="255.8" y2="262.9"/>
<line class="st12" x1="205.8" y1="334.3" x2="252" y2="334.3"/>
<path class="st13" d="M251,336.4c1.6,0.1,3.2,0,4.6-0.3c4.9-1.2,9.2-3.9,12.1-7.9c-3,1.7-6.2,3.2-9.4,4.3c-2.5,0.9-4.9,1.6-7.4,2
	L251,336.4z"/>
</svg>
